<?xml version="1.0" encoding="iso-8859-1"?>
<!-- Generator: Adobe Illustrator 17.1.0, SVG Export Plug-In . SVG Version: 6.00 Build 0)  -->
<!DOCTYPE svg PUBLIC "-//W3C//DTD SVG 1.1//EN" "http://www.w3.org/Graphics/SVG/1.1/DTD/svg11.dtd">
<svg version="1.1" id="Capa_1" xmlns="http://www.w3.org/2000/svg" xmlns:xlink="http://www.w3.org/1999/xlink" x="0px" y="0px"
	 viewBox="0 0 376.982 376.982" style="enable-background:new 0 0 376.982 376.982;" xml:space="preserve">
<path d="M284.594,108.999c-1.98,0-3.951,0.082-5.911,0.243l20.06-25.688c5.784,2.616,12.206,3.583,18.684,2.743
	c9.18-1.19,17.33-5.863,22.949-13.157l13.462-17.471c11.635-15.103,8.815-36.857-6.287-48.496
	c-15.107-11.636-36.863-8.815-48.499,6.288l-13.463,17.471c-9.974,12.952-9.428,30.665,0.485,42.849l-31.479,40.313
	c-4.526-11.072-11.828-20.964-21.212-28.567c-12.647-10.245-28.591-15.888-44.895-15.888c-16.302,0-32.245,5.643-44.892,15.888
	c-9.384,7.602-16.685,17.495-21.211,28.564L90.901,73.773c9.923-12.214,10.456-29.905,0.488-42.843L77.93,13.461
	C66.294-1.644,44.536-4.463,29.429,7.174c-15.101,11.637-17.92,33.392-6.285,48.495l13.459,17.469
	c9.966,12.938,27.357,16.864,41.634,10.413l20.062,25.691c-1.96-0.162-3.933-0.243-5.913-0.243
	c-39.353,0-71.369,32.017-71.369,71.372s32.016,71.372,71.369,71.372c6.621,0,13.087-0.886,19.329-2.642v47.97l-52.309,66.988
	c-2.719,3.482-2.101,8.51,1.381,11.229c3.483,2.72,8.511,2.101,11.229-1.381l39.698-50.838v16.428c0,4.418,3.582,8,8,8h137.552
	c4.418,0,8-3.582,8-8v-16.426l39.696,50.836c1.578,2.02,3.932,3.077,6.311,3.077c1.722,0,3.457-0.554,4.918-1.695
	c3.482-2.719,4.101-7.747,1.381-11.229l-52.306-66.986V249.1c6.243,1.756,12.708,2.643,19.327,2.643
	c39.354,0,71.371-32.017,71.371-71.372S323.948,108.999,284.594,108.999z M298.265,40.696l13.462-17.47
	c6.252-8.116,17.944-9.63,26.06-3.379c8.114,6.253,9.628,17.942,3.377,26.057l-13.462,17.471c-3.011,3.908-7.391,6.414-12.332,7.055
	c-4.939,0.642-9.81-0.663-13.717-3.67c-0.006-0.005-0.012-0.009-0.018-0.014c0,0,0,0-0.001-0.001
	c-0.184-0.141-0.364-0.287-0.59-0.479C293.515,59.953,292.269,48.481,298.265,40.696z M75.886,66.309
	c-0.165,0.141-0.332,0.28-0.507,0.414c-0.006,0.005-0.013,0.01-0.019,0.015c-0.007,0.005-0.015,0.011-0.022,0.017
	c-8.117,6.251-19.807,4.737-26.059-3.38l-13.46-17.469c-6.251-8.115-4.737-19.804,3.376-26.056
	c3.372-2.598,7.361-3.855,11.321-3.855c5.571,0,11.085,2.489,14.74,7.233l13.459,17.469C84.714,48.481,83.468,59.952,75.886,66.309z
	 M284.594,235.742c-8.356,0-16.389-1.816-23.875-5.397c-2.478-1.187-5.392-1.017-7.717,0.448c-2.325,1.465-3.735,4.021-3.735,6.769
	v46.27h-80.151c-4.418,0-8,3.582-8,8s3.582,8,8,8h80.15c0,0.025,0,0.051,0,0.077v31.587H127.715v-31.59c0-0.051,0-0.102,0-0.152
	v-62.191c0-2.748-1.41-5.304-3.735-6.769c-2.324-1.464-5.238-1.633-7.718-0.448c-7.483,3.581-15.516,5.397-23.875,5.397
	c-30.531,0-55.369-24.839-55.369-55.372s24.838-55.372,55.369-55.372c10.665,0,21.018,3.039,29.941,8.788
	c2.197,1.416,4.945,1.668,7.365,0.678c2.418-0.991,4.2-3.1,4.773-5.649c5.622-25.019,28.341-43.178,54.022-43.178
	s48.403,18.159,54.026,43.178c0.573,2.55,2.355,4.659,4.773,5.649c2.418,0.99,5.168,0.737,7.364-0.678
	c8.924-5.749,19.278-8.788,29.942-8.788c30.532,0,55.371,24.839,55.371,55.372S315.126,235.742,284.594,235.742z"/>
<g>
</g>
<g>
</g>
<g>
</g>
<g>
</g>
<g>
</g>
<g>
</g>
<g>
</g>
<g>
</g>
<g>
</g>
<g>
</g>
<g>
</g>
<g>
</g>
<g>
</g>
<g>
</g>
<g>
</g>
</svg>
